<?xml version="1.0" encoding="UTF-8"?>
<svg id="Layer_1" data-name="Layer 1" xmlns="http://www.w3.org/2000/svg" viewBox="0 0 1280 692.52">
  <defs>
    <style>
      .cls-1 {
        fill: #020202;
      }
    </style>
  </defs>
  <polygon class="cls-1" points="-8.54 1327.84 -8.54 677.03 -8.54 593.09 -8.54 440.9 -1.84 437.8 16.03 440.19 30.21 449.66 48.34 452 64.67 455.43 82.07 448.1 98 450.98 114.6 456.38 130.29 448.32 146.8 452.18 162.89 453.04 179.1 452.51 192.98 458.16 209.06 457.47 223.19 463.55 240 455.58 254.88 459.16 272.64 459.24 288.33 453.7 300.8 444.95 317.15 441.19 334 437.81 351.57 437.35 369.21 439.24 387.17 441.38 404.97 436.64 421.23 442.53 439.67 439.95 455.73 445.21 471.68 450.25 488.04 454.23 504.43 458.27 521.26 461.39 540.36 456.74 556.36 461.9 571.62 465.89 587.64 466.1 602.87 470.2 619.09 469.21 634.83 470.72 650.87 466.61 666.29 468.01 682.09 469.76 698.58 464.65 717.19 461.82 733.16 454.43 752.19 458.28 768.74 447.3 786.68 448.91 803.22 451.53 818.84 448.25 835.18 452.33 851.05 453.16 866.85 451.42 882.86 446.95 899.14 443.37 914.45 452.05 931.02 447.3 947.3 446.49 962.42 452.48 977.32 458.46 994.85 452.31 1011.17 452.3 1022.16 466.54 1038.98 464.6 1055.08 459 1069.48 460.89 1086.99 465.18 1099.33 455.04 1113.58 449.09 1131.89 450.15 1145.31 442.52 1164.21 445.4 1176.97 435.71 1193.2 433.35 1210.22 435 1226.06 431.15 1243.04 433.84 1260.47 431.07 1277.56 429.72 1288.54 430.72 1288.54 593.09 1288.54 658.98 1288.54 659.17 1288.54 677.03 1288.54 1327.84 -8.54 1327.84"/>
</svg>